<svg width="40" height="40" viewBox="0 0 40 40" fill="none" xmlns="http://www.w3.org/2000/svg">
<path d="M19.9999 3.3999C10.8333 3.3999 3.33325 10.8832 3.33325 20.0999C3.33325 28.4332 9.43325 35.3499 17.3999 36.5999V24.9332H13.1666V20.0999H17.3999V16.4166C17.3999 12.2332 19.8833 9.93324 23.6999 9.93324C25.5166 9.93324 27.4166 10.2499 27.4166 10.2499V14.3666H25.3166C23.2499 14.3666 22.5999 15.6499 22.5999 16.9666V20.0999H27.2333L26.4833 24.9332H22.5999V36.5999C26.5273 35.9796 30.1036 33.9758 32.6831 30.95C35.2627 27.9242 36.6755 24.076 36.6666 20.0999C36.6666 10.8832 29.1666 3.3999 19.9999 3.3999Z" fill="#F7FBFB"/>
</svg>
