<svg width="40" height="40" viewBox="0 0 40 40" fill="none" xmlns="http://www.w3.org/2000/svg">
<path d="M19.9899 3.3335C16.6936 3.3335 13.4712 4.31098 10.7304 6.14234C7.98959 7.97369 5.85338 10.5767 4.59192 13.6221C3.33046 16.6675 3.00041 20.0187 3.6435 23.2517C4.28658 26.4847 5.87393 29.4544 8.2048 31.7853C10.5357 34.1162 13.5054 35.7035 16.7384 36.3466C19.9714 36.9897 23.3225 36.6596 26.368 35.3982C29.4134 34.1367 32.0164 32.0005 33.8477 29.2597C35.6791 26.5188 36.6566 23.2965 36.6566 20.0002C36.6566 17.8115 36.2255 15.6442 35.3879 13.6221C34.5503 11.6 33.3227 9.76269 31.775 8.21505C30.2274 6.66741 28.3901 5.43975 26.368 4.60217C24.3459 3.76459 22.1786 3.3335 19.9899 3.3335ZM25.2899 28.5868C25.2277 28.7425 25.1329 28.8831 25.0119 28.9992C24.8909 29.1152 24.7464 29.204 24.5882 29.2595C24.43 29.3151 24.2617 29.3362 24.0947 29.3214C23.9277 29.3065 23.7658 29.2561 23.6199 29.1735L19.0949 25.6568L16.1916 28.3368C16.1242 28.3866 16.0454 28.4186 15.9624 28.43C15.8794 28.4413 15.7949 28.4317 15.7166 28.4018L16.2732 23.4202L16.2899 23.4352L16.3016 23.3368C16.3016 23.3368 24.4432 15.9235 24.7749 15.6085C25.1116 15.2935 24.9999 15.2252 24.9999 15.2252C25.0199 14.8418 24.3982 15.2252 24.3982 15.2252L13.6099 22.1652L9.11825 20.6352C9.11825 20.6352 8.42825 20.3885 8.36325 19.8435C8.29492 19.3035 9.13992 19.0102 9.13992 19.0102L27.0016 11.9135C27.0016 11.9135 28.4699 11.2602 28.4699 12.3435L25.2899 28.5868Z" fill="#F7FBFB"/>
</svg>
